<?xml version="1.0" standalone="no"?>
<!DOCTYPE svg PUBLIC "-//W3C//DTD SVG 20010904//EN"
 "http://www.w3.org/TR/2001/REC-SVG-20010904/DTD/svg10.dtd">
<svg version="1.0" xmlns="http://www.w3.org/2000/svg"
 width="1024.000000pt" height="1024.000000pt" viewBox="0 0 1024.000000 1024.000000"
 preserveAspectRatio="xMidYMid meet">

<g transform="translate(0.000000,1024.000000) scale(0.100000,-0.100000)"
fill="#003932" stroke="none">
<path d="M4940 7904 c-19 -2 -78 -9 -130 -15 -326 -37 -720 -161 -1020 -321
-116 -62 -310 -189 -310 -203 0 -5 43 -68 95 -139 52 -71 96 -133 98 -139 1
-5 36 16 77 48 243 187 605 338 960 399 464 80 942 16 1385 -186 117 -54 299
-164 376 -229 l46 -39 106 145 106 144 -47 34 c-331 240 -785 417 -1237 483
-98 14 -436 26 -505 18z"/>
<path d="M3136 7090 c-424 -409 -736 -942 -860 -1470 -53 -224 -70 -376 -70
-642 -1 -135 2 -249 5 -252 3 -3 43 30 90 75 190 183 360 259 575 259 132 0
188 -12 299 -64 191 -90 348 -280 402 -486 22 -84 22 -267 0 -374 -9 -44 -16
-81 -14 -82 1 -1 38 27 82 63 83 67 208 133 285 151 136 32 303 21 433 -28
138 -52 326 -214 430 -372 134 -203 215 -420 252 -673 27 -190 22 -175 54
-175 28 0 28 0 40 93 48 386 179 690 393 913 95 99 147 139 243 187 107 54
182 70 320 71 98 0 134 -4 195 -23 104 -32 195 -82 281 -154 l72 -61 -7 35
c-30 148 -38 220 -31 292 19 217 128 422 292 546 132 100 250 141 411 141 216
0 394 -79 588 -262 46 -45 87 -78 91 -74 4 3 7 126 7 274 1 299 -9 396 -69
628 -36 140 -121 381 -177 504 -97 211 -262 478 -409 660 -84 105 -369 401
-385 399 -5 0 -41 -51 -80 -112 -39 -62 -92 -143 -116 -182 -25 -38 -116 -182
-203 -320 -87 -137 -194 -306 -238 -375 -43 -69 -118 -187 -166 -262 -47 -76
-131 -206 -186 -289 l-100 -152 -110 -39 c-60 -21 -156 -57 -213 -79 -57 -23
-104 -40 -106 -38 -2 2 1 51 8 109 10 99 14 110 50 160 21 29 58 74 82 100
l43 46 -20 74 c-59 224 -65 477 -14 653 8 27 10 47 5 45 -23 -8 -190 -161
-246 -225 -106 -122 -137 -191 -150 -340 -7 -73 -7 -73 -33 -65 -14 4 -54 7
-88 7 l-63 -1 0 46 c0 115 -59 246 -158 352 -99 105 -230 223 -239 215 -2 -2
4 -37 12 -78 37 -172 30 -374 -21 -581 l-27 -107 39 -47 c21 -26 60 -73 85
-104 l47 -57 7 -101 7 -101 -63 26 c-35 14 -131 49 -214 78 l-150 53 -67 96
c-36 53 -125 190 -196 304 -71 114 -183 290 -247 392 -65 102 -151 239 -193
305 -41 66 -104 165 -140 220 -35 55 -99 153 -141 218 -42 65 -83 128 -92 139
-15 21 -18 19 -123 -82z m1834 -1493 c51 -30 55 -35 58 -75 2 -24 -1 -42 -7
-42 -12 0 -101 48 -118 64 -13 11 -7 86 6 86 4 0 31 -15 61 -33z m328 -13 c-3
-46 -3 -46 -65 -74 l-63 -29 0 44 c0 42 2 44 53 73 72 43 79 41 75 -14z"/>
<path d="M2446 4501 l-139 -139 37 -123 c136 -450 364 -834 705 -1183 221
-226 431 -378 729 -529 333 -169 594 -250 977 -303 162 -22 485 -22 660 0 354
46 664 136 957 278 296 144 513 295 737 513 343 334 576 707 728 1164 46 138
53 168 43 186 -7 12 -70 80 -140 150 -127 127 -129 128 -135 99 -3 -16 -21
-91 -40 -167 -127 -505 -430 -984 -840 -1326 -475 -396 -1166 -617 -1789 -573
-351 25 -635 100 -941 246 -524 251 -929 651 -1185 1171 -105 214 -132 293
-218 648 -7 27 -10 24 -146 -112z"/>
</g>
</svg>
